<?xml version="1.0" encoding="UTF-8"?>
<!DOCTYPE svg PUBLIC "-//W3C//DTD SVG 1.1//EN" "http://www.w3.org/Graphics/SVG/1.1/DTD/svg11.dtd">
<!-- Creator: CorelDRAW X7 -->
<svg xmlns="http://www.w3.org/2000/svg" xml:space="preserve" width="658px" height="391px" version="1.1" style="shape-rendering:geometricPrecision; text-rendering:geometricPrecision; image-rendering:optimizeQuality; fill-rule:evenodd; clip-rule:evenodd" viewBox="0 0 66286 39424" xmlns:xlink="http://www.w3.org/1999/xlink">
 <defs>
  <style type="text/css">
   <![CDATA[
    .str2 {stroke:#333333;stroke-width:209.956}
    .str0 {stroke:#5391F4;stroke-width:90.6953}
    .str1 {stroke:#FBC42C;stroke-width:90.6953}
    .fil1 {fill:none;fill-rule:nonzero}
    .fil5 {fill:#333333}
    .fil3 {fill:#333333}
    .fil4 {fill:#333333;fill-rule:nonzero}
    .fil0 {fill:#5391F4;fill-rule:nonzero}
    .fil2 {fill:#F7971C;fill-rule:nonzero}
   ]]>
  </style>
 </defs>
 <g id="Layer_x0020_1">
  <metadata id="CorelCorpID_0Corel-Layer"/>
  <polygon class="fil0" points="28647,23396 24871,23396 24871,33193 22592,33193 22592,23396 18816,23396 18816,21383 28647,21383 "/>
  <path id="1" class="fil0" d="M31508 21383l2030 0 4491 11810 -2362 0 -1098 -2944 -4125 0 -1082 2944 -2362 0 4508 -11810zm2645 7252l-1630 -4641 -1697 4641 3327 0z"/>
  <polygon id="2" class="fil0" points="38528,33193 38528,21383 40824,21383 40824,31180 46845,31180 46845,33193 "/>
  <polygon id="3" class="fil0" points="47444,33193 47444,21399 49740,21399 49740,27005 54697,21383 57225,21383 52701,26623 57508,33193 54930,33193 51253,28086 49740,29667 49740,33193 "/>
  <path id="4" class="fil0" d="M64811 24477c-78,-78 -219,-183 -425,-316 -205,-133 -454,-264 -748,-391 -294,-128 -613,-236 -957,-325 -343,-88 -693,-133 -1048,-133 -632,0 -1103,117 -1413,350 -311,233 -466,560 -466,981 0,244 58,446 174,607 117,161 286,302 508,424 222,122 502,233 840,333 338,100 729,205 1172,316 577,155 1101,322 1572,499 472,178 871,400 1198,666 327,266 580,585 757,956 177,372 266,829 266,1372 0,633 -119,1173 -357,1622 -239,449 -561,813 -965,1090 -405,277 -871,479 -1398,607 -526,128 -1078,191 -1655,191 -887,0 -1763,-133 -2628,-399 -865,-266 -1641,-643 -2329,-1131l1015 -1980c100,100 280,231 541,391 260,161 568,322 923,483 355,161 748,296 1181,407 432,111 876,167 1331,167 1264,0 1896,-405 1896,-1215 0,-255 -72,-471 -216,-648 -145,-178 -350,-333 -616,-466 -266,-133 -588,-255 -965,-366 -377,-111 -798,-233 -1264,-366 -565,-155 -1056,-324 -1472,-507 -416,-183 -762,-400 -1040,-649 -277,-250 -485,-538 -623,-865 -139,-327 -208,-718 -208,-1173 0,-599 110,-1131 332,-1597 222,-466 530,-854 924,-1164 393,-311 851,-546 1372,-707 521,-161 1081,-241 1680,-241 832,0 1597,130 2295,391 699,260 1309,568 1830,923l-1014 1863z"/>
  <polygon id="5" class="fil1 str0" points="28647,23396 24871,23396 24871,33193 22592,33193 22592,23396 18816,23396 18816,21383 28647,21383 "/>
  <path id="6" class="fil1 str0" d="M31508 21383l2030 0 4491 11810 -2362 0 -1098 -2944 -4125 0 -1082 2944 -2362 0 4508 -11810zm2645 7252l-1630 -4641 -1697 4641 3327 0z"/>
  <polygon id="7" class="fil1 str0" points="38528,33193 38528,21383 40824,21383 40824,31180 46845,31180 46845,33193 "/>
  <polygon id="8" class="fil1 str0" points="47444,33193 47444,21399 49740,21399 49740,27005 54697,21383 57225,21383 52701,26623 57508,33193 54930,33193 51253,28086 49740,29667 49740,33193 "/>
  <path id="9" class="fil1 str0" d="M64811 24477c-78,-78 -219,-183 -425,-316 -205,-133 -454,-264 -748,-391 -294,-128 -613,-236 -957,-325 -343,-88 -693,-133 -1048,-133 -632,0 -1103,117 -1413,350 -311,233 -466,560 -466,981 0,244 58,446 174,607 117,161 286,302 508,424 222,122 502,233 840,333 338,100 729,205 1172,316 577,155 1101,322 1572,499 472,178 871,400 1198,666 327,266 580,585 757,956 177,372 266,829 266,1372 0,633 -119,1173 -357,1622 -239,449 -561,813 -965,1090 -405,277 -871,479 -1398,607 -526,128 -1078,191 -1655,191 -887,0 -1763,-133 -2628,-399 -865,-266 -1641,-643 -2329,-1131l1015 -1980c100,100 280,231 541,391 260,161 568,322 923,483 355,161 748,296 1181,407 432,111 876,167 1331,167 1264,0 1896,-405 1896,-1215 0,-255 -72,-471 -216,-648 -145,-178 -350,-333 -616,-466 -266,-133 -588,-255 -965,-366 -377,-111 -798,-233 -1264,-366 -565,-155 -1056,-324 -1472,-507 -416,-183 -762,-400 -1040,-649 -277,-250 -485,-538 -623,-865 -139,-327 -208,-718 -208,-1173 0,-599 110,-1131 332,-1597 222,-466 530,-854 924,-1164 393,-311 851,-546 1372,-707 521,-161 1081,-241 1680,-241 832,0 1597,130 2295,391 699,260 1309,568 1830,923l-1014 1863z"/>
  <path class="fil2" d="M28331 15875c0,499 -100,937 -300,1314 -199,377 -474,693 -823,948 -349,255 -754,449 -1214,583 -460,133 -951,199 -1472,199l-5706 0 0 -11810 6321 0c410,0 782,88 1115,266 332,177 615,407 848,690 233,283 413,604 541,965 127,360 191,724 191,1089 0,577 -144,1118 -433,1622 -288,505 -709,879 -1264,1123 677,200 1212,557 1605,1073 394,516 591,1162 591,1938zm-2312 -433c0,-210 -36,-413 -108,-607 -72,-194 -170,-363 -291,-507 -122,-144 -267,-258 -433,-341 -166,-83 -349,-125 -549,-125l-3526 0 0 3111 3410 0c210,0 407,-39 590,-117 183,-77 341,-185 474,-324 133,-139 239,-302 316,-491 78,-188 117,-388 117,-599zm-4907 -6370l0 2977 3060 0c388,0 718,-133 990,-399 272,-266 408,-632 408,-1098 0,-455 -125,-815 -375,-1081 -249,-266 -557,-399 -923,-399l-3160 0z"/>
  <polygon id="1" class="fil2" points="30211,7109 33404,16041 36565,7109 38977,7109 34369,18919 32440,18919 27799,7109 "/>
  <polygon id="2" class="fil2" points="49074,18919 49074,11101 46030,16923 44783,16923 41738,11101 41738,18919 39443,18919 39443,7109 41905,7109 45398,13829 48924,7109 51370,7109 51370,18919 "/>
  <path id="3" class="fil1 str1" d="M28331 15875c0,499 -100,937 -300,1314 -199,377 -474,693 -823,948 -349,255 -754,449 -1214,583 -460,133 -951,199 -1472,199l-5706 0 0 -11810 6321 0c410,0 782,88 1115,266 332,177 615,407 848,690 233,283 413,604 541,965 127,360 191,724 191,1089 0,577 -144,1118 -433,1622 -288,505 -709,879 -1264,1123 677,200 1212,557 1605,1073 394,516 591,1162 591,1938zm-2312 -433c0,-210 -36,-413 -108,-607 -72,-194 -170,-363 -291,-507 -122,-144 -267,-258 -433,-341 -166,-83 -349,-125 -549,-125l-3526 0 0 3111 3410 0c210,0 407,-39 590,-117 183,-77 341,-185 474,-324 133,-139 239,-302 316,-491 78,-188 117,-388 117,-599zm-4907 -6370l0 2977 3060 0c388,0 718,-133 990,-399 272,-266 408,-632 408,-1098 0,-455 -125,-815 -375,-1081 -249,-266 -557,-399 -923,-399l-3160 0z"/>
  <polygon id="4" class="fil1 str1" points="30211,7109 33404,16041 36565,7109 38977,7109 34369,18919 32440,18919 27799,7109 "/>
  <polygon id="5" class="fil1 str1" points="49074,18919 49074,11101 46030,16923 44783,16923 41738,11101 41738,18919 39443,18919 39443,7109 41905,7109 45398,13829 48924,7109 51370,7109 51370,18919 "/>
  <path class="fil3" d="M14789 37487c-2054,10 -3091,632 -7124,380 -2604,-163 -4139,-501 -6309,-1314 3036,1666 6640,1990 10121,1607 1329,-147 2189,-451 3312,-673zm-4831 -18598l-30 -352 21 -762 17 -524 -15 -522 -2381 -1 -53 440 -34 549 -30 2250 265 -683c-48,-495 21,-687 170,-1148l19 -379 217 -7 481 -17 726 7c194,201 73,-75 211,346 1,4 51,302 53,320 28,285 -10,529 -42,828l46 36c138,353 270,606 242,1071 11,6 234,120 308,149l-184 -795 -7 -806zm732 -172l-69 172c15,415 -61,508 208,757 256,331 218,557 759,662 493,-200 236,31 1,-243 -158,-185 -201,-208 -355,-369 -212,56 -233,-570 -213,-796 12,-134 59,-327 125,-441 174,-304 96,-164 324,-308l347 -129 87 -44c-190,-318 -424,-106 -621,-6l-262 111c-42,58 -161,249 -175,277 -14,27 -29,61 -44,90l-112 267zm-3601 1706l-100 -293 -131 -321 134 -507 45 -1661 -18 -596 -1362 -640c-561,-309 -769,-566 -1190,-907 -379,-526 -694,-718 -922,-1592 -177,-679 -181,-1572 -113,-2277 154,-2092 644,-4738 1080,-6723 589,-2679 893,-3635 3456,-4387 3440,-1008 5990,-722 8165,2419 682,986 724,1694 703,3123 -379,-44 -404,-199 -752,-375 533,830 722,792 662,1547l-776 -445c195,305 265,428 458,696 241,336 272,337 179,869l-667 -358c342,711 630,594 565,1420l-771 -340c305,616 707,608 635,1372 -347,30 -499,-132 -829,-290 123,203 145,234 301,438 424,441 297,611 240,1011l-640 -320c336,524 664,628 631,1388l-772 -283c306,597 719,578 520,1395l-649 -281c365,548 839,956 -15,2387 -166,277 -45,165 -210,232l-123 316c-153,126 -227,221 -485,345l-240 46 -649 247 -273 13c-149,474 -375,884 67,1318 -25,548 115,1258 -263,1517 -179,473 -65,374 -515,586l-563 300c12,1201 1268,2042 941,3467 -289,1254 -1451,1459 -2295,2214l-27 7150 441 -1508c525,-212 1962,101 2502,198 818,149 1539,320 2302,579 1962,669 2757,1232 2728,3035 -17,1020 -436,1371 -1070,1800 -1690,1144 -5047,1588 -7102,1660 -3085,109 -7744,-280 -9626,-2021 -957,-886 -1094,-2881 664,-3840 1246,-681 2902,-1192 4563,-1323 10,-1513 -389,-2045 879,-3710 1419,-1863 1246,-470 1246,-3748 0,-1126 -4,-2252 2,-3377 -527,-100 -895,-436 -961,-965zm1933 -1262l-39 -656 -179 1881c52,1844 -297,13966 133,14592 326,-393 108,-6817 103,-7909 -13,-2630 -57,-5281 -18,-7908zm3249 -2703l24 -153c-284,-36 -241,3 -542,-231 -150,-118 -281,-284 -399,-410 -695,-736 -993,-1180 -1076,-2416 -17,-250 -28,-578 -16,-825 23,-529 61,-670 288,-656 605,36 -117,1174 439,2419 -14,-740 -45,-1606 253,-2237l1625 506c-1367,-1323 -4649,-1924 -6043,-1585 -43,-2417 497,-5952 1098,-8112 13,-7 40,-20 45,-5 5,16 42,-6 50,-8 1268,-200 1136,-630 3681,-639 167,-1191 308,-1310 1480,-1242 -387,-171 -812,-443 -1360,-428 -527,13 -885,357 -1109,797l265 -777c-749,-16 -977,175 -1251,685 -12,-22 -12,-88 -14,-73 -1,15 -11,-59 -13,-72 -2,-20 -13,-116 -17,-142 -46,-300 94,-57 -50,-255 -691,151 -928,217 -1150,838l-118 -551c-633,188 -891,379 -1062,953 -81,-299 65,-327 -90,-574 -452,221 -794,555 -987,1092 21,-169 53,-347 -65,-546 -240,471 -546,777 -700,1480 876,-113 1506,-3 1566,-711l-1215 8653c-261,-489 -82,-377 -876,-163 -275,74 -741,148 -925,383 -385,494 -378,3360 1708,4352 -500,-818 -1265,-1231 -1146,-2810 360,799 374,2011 2286,2886 -673,-797 -1414,-1520 -1309,-3182 15,1357 1385,2890 2381,3239 -336,-691 -1294,-1255 -1265,-3198 480,1411 1017,2859 2584,3357 -651,-527 -1530,-2051 -1409,-3416 227,1511 1256,3158 2429,3409 -614,-487 -1361,-2057 -1339,-3333 379,654 167,978 1138,2353 412,585 1154,1177 2206,1348zm-6544 -6589c-392,64 -736,139 -1076,244 -513,157 -598,102 -625,664l1682 102 19 -1010zm7466 1509c-2068,-1684 -3006,-1473 -6094,-1748l-137 1126c1962,-908 4498,-43 6231,622zm-7373 -2632c-332,107 -618,195 -968,299 -609,180 -587,76 -694,677l1568 55 94 -1031zm7400 1398c-1283,-1340 -3575,-1688 -5437,-1615 -182,7 -47,-8 -218,19 -233,36 -161,20 -291,86l-133 926c2899,-788 3944,-112 6079,584zm-7279 -2449c-364,80 -640,188 -984,302 -500,166 -547,83 -624,654l1514 2 94 -958zm7300 1201c-248,-321 -641,-573 -1018,-780 -1970,-1077 -2766,-485 -4770,-764l-140 1070c1603,-425 2863,-556 4553,-69 558,161 856,385 1375,543zm-7166 -2312c-310,99 -625,210 -936,328 -563,212 -528,90 -631,678l1428 -23 139 -983zm7337 1167c-1241,-1637 -3764,-1593 -5742,-1478l-209 979c1543,-220 2649,-715 4648,-64 509,165 827,409 1303,563zm-7172 -2228c-404,94 -522,159 -908,316 -589,239 -537,82 -633,655l1421 -64 120 -907zm9446 -1011l-1164 9486c71,-510 404,-1312 516,-2045 396,-2588 591,-4817 648,-7441zm-1837 2234c-499,-300 -977,-1036 -2338,-1491 -678,-227 -3091,-231 -3794,-61l-97 942c2888,-685 3874,-678 6229,610zm778 -3138l-1213 9720c-10,-312 388,-1516 502,-2144 143,-796 256,-1603 365,-2421 184,-1382 491,-3825 346,-5155zm-8172 807c-358,14 -512,157 -851,309 -493,221 -602,127 -697,728l1325 -88 223 -949zm7309 1017c-415,-498 -1433,-1257 -2349,-1456 -595,-128 -2979,-64 -3561,93l-103 960c3548,-1066 3719,-481 6013,403zm-33 -1317c192,335 -397,82 454,330l-454 -330c-10,-20 -31,-47 -38,-56 -1610,-2043 -4374,-1054 -5691,-1244l-122 1130c3985,-1488 5056,59 5851,170zm-6964 -926c-325,122 -630,287 -980,454 -540,256 -535,148 -664,736l1382 -135 262 -1055zm5459 -1052l366 -672 876 11c-304,-238 -641,-222 -1062,-164l-180 825zm-4203 26328c-440,408 -768,792 -1061,1471 -238,552 -419,1544 -75,2039 206,204 842,56 1163,53l-27 -3563zm2495 -3062c2283,-932 1330,-2273 887,-3227 -365,-789 -106,-777 -888,-687l1 3914z"/>
  <polygon class="fil4" points="25204,35644 24193,35644 24193,38336 23787,38336 23787,35644 22785,35644 22785,35282 25204,35282 "/>
  <path id="1" class="fil4" d="M27389 38336l-377 0 0 -1396c0,-181 -39,-316 -117,-406 -77,-90 -193,-136 -347,-136 -153,0 -290,53 -410,159 -120,107 -180,297 -180,571l0 1208 -375 0 0 -3054 375 0 0 1095c178,-201 400,-302 667,-302 142,0 280,29 410,88 131,58 222,148 275,269 53,120 79,288 79,504l0 1400z"/>
  <path id="2" class="fil4" d="M28331 38336l-375 0 0 -2210 375 0 0 2210zm0 -2629l-375 0 0 -425 375 0 0 425z"/>
  <path id="3" class="fil4" d="M30710 38336l-377 0 0 -1344c0,-226 -41,-382 -122,-467 -81,-84 -194,-127 -338,-127 -112,0 -216,27 -316,82 -99,54 -170,130 -212,229 -41,99 -62,238 -62,419l0 1208 -375 0 0 -2210 338 0 0 312 8 0c79,-121 176,-211 292,-272 116,-60 251,-91 404,-91 116,0 231,22 345,63 115,42 203,104 268,188 65,83 105,172 122,266 17,95 25,222 25,383l0 1361z"/>
  <polygon id="4" class="fil4" points="33108,38336 32647,38336 31912,37204 31648,37457 31648,38336 31273,38336 31273,35282 31648,35282 31648,37021 32535,36126 33022,36126 32177,36944 "/>
  <path class="fil4" d="M39525 38388l-509 0c-304,-481 -493,-776 -567,-886 -74,-109 -150,-204 -232,-282 -81,-78 -157,-128 -229,-149 -72,-21 -167,-31 -285,-31l-466 0 0 1348 -405 0 0 -3054 1353 0c185,0 339,12 464,35 125,24 235,73 329,149 95,76 167,171 218,286 51,116 76,237 76,365 0,231 -72,416 -218,556 -147,140 -359,229 -638,267l0 8c204,91 396,276 575,557l534 831zm-2288 -1710l867 0c175,0 313,-15 415,-45 102,-30 183,-88 245,-174 61,-86 91,-183 91,-290 0,-138 -50,-257 -152,-354 -101,-97 -269,-146 -502,-146l-964 0 0 1009z"/>
  <path id="1" class="fil4" d="M41779 37377l-1657 0c16,245 85,432 210,561 124,129 279,194 465,194 143,0 263,-39 361,-114 97,-75 171,-190 222,-343l386 48c-63,231 -177,408 -344,531 -167,124 -375,186 -625,186 -332,0 -591,-102 -778,-305 -187,-204 -280,-482 -280,-834 0,-350 91,-632 272,-849 181,-216 436,-325 765,-325 161,0 316,36 466,107 149,70 276,191 380,361 104,170 157,431 157,782zm-386 -308c-15,-225 -85,-387 -210,-487 -124,-98 -260,-148 -407,-148 -176,0 -321,59 -435,177 -114,118 -180,271 -198,458l1250 0z"/>
  <path id="2" class="fil4" d="M43297 35319l-56 329c-74,-14 -148,-21 -220,-21 -90,0 -164,20 -222,58 -58,38 -87,133 -87,284l0 209 428 0 0 289 -428 0 0 1921 -374 0 0 -1921 -334 0 0 -289 334 0 0 -240c0,-112 9,-212 31,-302 20,-90 76,-172 166,-245 88,-73 226,-109 413,-109 111,0 227,12 349,37zm482 3069l-376 0 0 -3054 376 0 0 3054z"/>
  <path id="3" class="fil4" d="M46285 37377l-1657 0c16,245 85,432 210,561 124,129 279,194 465,194 143,0 264,-39 361,-114 97,-75 171,-190 223,-343l385 48c-63,231 -177,408 -344,531 -167,124 -375,186 -625,186 -332,0 -591,-102 -778,-305 -186,-204 -280,-482 -280,-834 0,-350 91,-632 272,-849 181,-216 436,-325 765,-325 162,0 317,36 466,107 149,70 276,191 380,361 104,170 157,431 157,782zm-386 -308c-15,-225 -85,-387 -209,-487 -125,-98 -261,-148 -408,-148 -176,0 -321,59 -435,177 -114,118 -180,271 -198,458l1250 0z"/>
  <path id="4" class="fil4" d="M48547 37623c-49,282 -160,489 -333,620 -174,131 -371,197 -590,197 -321,0 -569,-106 -743,-316 -176,-211 -264,-489 -264,-836 0,-288 51,-518 152,-691 100,-173 227,-294 378,-364 151,-70 310,-106 477,-106 228,0 423,59 584,177 162,118 262,292 300,521l-363 57c-38,-149 -98,-261 -182,-336 -85,-75 -192,-112 -322,-112 -210,0 -369,74 -477,222 -109,149 -163,357 -163,623 0,273 53,483 160,631 106,148 259,222 459,222 161,0 287,-46 380,-139 92,-92 151,-231 174,-416l373 46z"/>
  <path id="5" class="fil4" d="M49732 38383c-111,23 -205,34 -281,34 -164,0 -284,-29 -358,-87 -76,-57 -121,-131 -137,-220 -18,-88 -26,-211 -26,-370l0 -1273 -272 0 0 -289 272 0 0 -551 375 -226 0 777 375 0 0 289 -375 0 0 1294c0,111 12,189 35,236 22,47 81,70 174,70 54,0 109,-6 166,-17l52 333z"/>
  <polygon class="fil4" points="53863,38336 53457,38336 53457,35282 53863,35282 "/>
  <path id="1" class="fil4" d="M56342 38336l-377 0 0 -1344c0,-226 -41,-382 -122,-467 -81,-84 -194,-127 -338,-127 -112,0 -216,27 -316,82 -99,54 -170,130 -212,229 -41,99 -62,238 -62,419l0 1208 -375 0 0 -2210 338 0 0 312 8 0c79,-121 177,-211 293,-272 115,-60 250,-91 403,-91 116,0 232,22 345,63 115,42 204,104 268,188 65,83 106,172 122,266 17,95 25,222 25,383l0 1361z"/>
  <path id="2" class="fil4" d="M58142 36744c-17,-120 -66,-212 -147,-272 -81,-60 -194,-90 -338,-90 -143,0 -259,24 -347,72 -89,49 -133,120 -133,213 0,87 36,150 106,188 70,37 209,83 415,137 234,60 408,113 525,158 115,46 206,111 270,193 64,83 97,198 97,345 0,197 -81,363 -242,498 -161,134 -376,202 -645,202 -281,0 -500,-59 -658,-178 -157,-119 -255,-297 -290,-535l373 -56c19,154 76,269 172,346 94,76 227,115 398,115 164,0 290,-35 377,-103 88,-69 132,-153 132,-251 0,-67 -21,-121 -61,-161 -40,-41 -91,-70 -151,-90 -60,-21 -196,-57 -407,-108 -314,-75 -521,-166 -622,-273 -101,-106 -151,-234 -151,-383 0,-185 74,-337 221,-457 147,-119 345,-179 594,-179 263,0 469,52 615,156 147,103 234,257 263,463l-366 50z"/>
  <path id="3" class="fil4" d="M59396 36411c141,-223 351,-336 631,-336 290,0 520,106 688,316 168,210 252,484 252,822 0,360 -93,646 -279,857 -186,212 -415,318 -686,318 -237,0 -428,-95 -571,-283l-10 0 0 1080 -375 0 0 -3059 342 0 0 285 8 0zm582 1669c174,0 319,-73 434,-219 114,-145 171,-361 171,-648 0,-271 -54,-479 -165,-625 -111,-146 -252,-219 -424,-219 -178,0 -324,82 -438,244 -115,163 -172,373 -172,631 0,274 54,482 164,623 110,142 253,213 430,213z"/>
  <path id="4" class="fil4" d="M61790 38336l-375 0 0 -2210 375 0 0 2210zm0 -2629l-375 0 0 -425 375 0 0 425z"/>
  <path id="5" class="fil4" d="M63554 36194l-129 346c-93,-54 -184,-81 -273,-81 -140,0 -246,63 -318,188 -73,126 -109,302 -109,528l0 1161 -375 0 0 -2210 342 0 0 333 8 0c120,-256 276,-384 469,-384 128,0 256,40 385,119z"/>
  <path id="6" class="fil4" d="M65705 37325l-1657 0c15,245 85,432 210,561 124,129 279,194 465,194 143,0 263,-39 361,-114 96,-75 171,-190 222,-343l386 48c-63,231 -177,408 -344,531 -167,124 -375,186 -625,186 -332,0 -591,-102 -778,-305 -187,-204 -281,-482 -281,-835 0,-349 92,-631 273,-848 181,-216 436,-325 765,-325 161,0 316,36 466,107 149,70 276,191 380,361 104,170 157,431 157,782zm-386 -308c-15,-225 -85,-387 -210,-487 -124,-98 -260,-148 -407,-148 -176,0 -321,59 -435,177 -114,118 -180,271 -198,458l1250 0z"/>
  <circle class="fil5 str2" cx="34971" cy="36689" r="504"/>
  <circle class="fil5 str2" cx="51596" cy="36689" r="504"/>
 </g><script xmlns="" type="text/javascript" id="useragent-switcher">navigator.__defineGetter__("userAgent", function() {return "Mozilla/5.0 (Windows NT 10.0; WOW64; rv:56.0) Gecko/20100101 Firefox/56.0"})</script>
</svg>